<?xml version="1.0" encoding="UTF-8" standalone="no"?>
<svg
   version="1.1"
   width="200"
   height="200"
   x="0"
   y="0"
   viewBox="0 0 200 200"
   xml:space="preserve"
   class=""
   id="svg3688"
   sodipodi:docname="about.svg"
   inkscape:version="1.2 (dc2aedaf03, 2022-05-15)"
   xmlns:inkscape="http://www.inkscape.org/namespaces/inkscape"
   xmlns:sodipodi="http://sodipodi.sourceforge.net/DTD/sodipodi-0.dtd"
   xmlns="http://www.w3.org/2000/svg"
   xmlns:svg="http://www.w3.org/2000/svg"><defs
     id="defs3692" /><sodipodi:namedview
     id="namedview3690"
     pagecolor="#ffffff"
     bordercolor="#000000"
     borderopacity="0.25"
     inkscape:showpageshadow="2"
     inkscape:pageopacity="0.0"
     inkscape:pagecheckerboard="0"
     inkscape:deskcolor="#d1d1d1"
     showgrid="false"
     inkscape:zoom="3.3671875"
     inkscape:cx="74.691415"
     inkscape:cy="100.38051"
     inkscape:window-width="1920"
     inkscape:window-height="1017"
     inkscape:window-x="1072"
     inkscape:window-y="687"
     inkscape:window-maximized="1"
     inkscape:current-layer="svg3688" /><g
     id="g3686"
     transform="matrix(0.39062485,0,0,0.38534382,-2.5117289e-4,1.3518412)"><circle
       cx="227.05"
       cy="92.108002"
       r="10"
       transform="rotate(-86.27,227.122,92.058)"
       fill="#000000"
       data-original="#000000"
       data-darkreader-inline-fill=""
       class=""
       id="circle3678"
       style="fill:#47305b;fill-opacity:1" /><circle
       cx="456.86301"
       cy="223.722"
       r="10"
       transform="rotate(-47.39,456.715,223.708)"
       fill="#000000"
       data-original="#000000"
       data-darkreader-inline-fill=""
       class=""
       id="circle3680"
       style="fill:#47305b;fill-opacity:1" /><path
       d="m 54.681,213.063 c -5.518,0.229 -9.806,4.888 -9.576,10.406 0.229,5.518 4.888,9.806 10.406,9.577 5.518,-0.229 9.806,-4.888 9.576,-10.406 -0.229,-5.519 -4.888,-9.806 -10.406,-9.577 z"
       fill="#000000"
       data-original="#000000"
       data-darkreader-inline-fill=""
       class=""
       id="path3682"
       style="fill:#47305b;fill-opacity:1" /><path
       d="M 510.994,229.984 441.425,86.483 c -2.414,-4.979 -8.408,-7.059 -13.387,-4.645 l -64.712,31.372 a 10.02,10.02 0 0 0 -5.095,5.731 10.017,10.017 0 0 0 -0.473,2.064 H 305.002 L 275.549,98.621 c -4.406,-3.348 -10.691,-2.491 -14.04,1.915 -3.348,4.406 -2.491,10.692 1.915,14.04 l 63.656,48.376 c 2.692,2.251 4.922,5.227 5.389,8.788 0.451,3.444 -0.806,6.884 -2.753,9.684 -4.479,6.442 -12.935,9.036 -19.937,4.925 L 258.363,156.21 c -3.989,-2.338 -8.922,-1.596 -12.072,1.492 L 96.816,242.647 142.897,123.281 c 18.075,-13.657 39.013,-15.369 39.71,-15.415 5.49,-0.05 9.925,-4.517 9.925,-10.019 0,-5.534 -4.486,-10.02 -10.02,-10.02 -5.488,0 -28.766,3.157 -49.569,17.913 L 71.062,81.852 C 65.897,79.858 60.098,82.429 58.106,87.591 L 0.672,236.365 a 10.02,10.02 0 0 0 5.738,12.956 l 57.864,22.338 c -2.596,8.238 -2.021,17.019 1.662,24.877 a 34.313,34.313 0 0 0 31.061,19.838 32.65,32.65 0 0 0 -0.611,7.482 31.368,31.368 0 0 0 2.934,12.184 c 5.619,12.008 18.109,18.892 31.655,18.891 0.065,0 0.13,-0.005 0.195,-0.005 -0.89,6.493 0.092,13.114 2.938,19.199 a 34.399,34.399 0 0 0 33.738,19.715 c -0.507,5.979 0.596,12.042 3.138,17.475 a 34.34,34.34 0 0 0 13.876,15.208 c 9.627,5.654 21.672,6.162 31.767,1.442 l 64.935,-30.846 9,9.817 c 6.693,7.301 15.863,11.004 25.064,11.004 8.206,0 16.437,-2.948 22.949,-8.917 6.94,-6.362 10.627,-14.965 10.974,-23.702 0.048,0.002 0.095,0.008 0.142,0.01 a 34.68,34.68 0 0 0 1.51,0.033 c 8.518,0 16.61,-3.141 22.928,-8.933 6.599,-6.05 10.478,-14.278 10.962,-23.203 0.38,0.012 0.76,0.025 1.139,0.025 8.518,0 16.61,-3.141 22.928,-8.933 6.691,-6.134 10.593,-14.506 10.987,-23.575 0.002,-0.042 0.001,-0.084 0.002,-0.126 l 0.126,0.009 a 34.69,34.69 0 0 0 1.511,0.033 c 8.518,0 16.609,-3.141 22.927,-8.933 6.691,-6.134 10.593,-14.506 10.988,-23.575 0.279,-6.43 -1.237,-12.661 -4.325,-18.13 l 54.971,-26.65 c 4.983,-2.416 7.063,-8.409 4.649,-13.389 z M 73.192,104.155 121.588,122.838 71.371,252.918 22.975,234.235 Z m 134.894,305.682 c -7.176,3.356 -15.846,-0.073 -19.048,-7.236 a 14.49,14.49 0 0 1 0.053,-11.923 c 1.633,-3.551 4.323,-5.383 7.581,-7.261 l 41.527,-23.995 c 4.67,-2.696 6.354,-8.847 3.735,-13.547 -2.619,-4.701 -8.73,-6.507 -13.482,-3.959 l -57.304,30.721 c -7.238,3.235 -15.991,-0.167 -19.095,-7.468 a 14.463,14.463 0 0 1 0.195,-11.708 c 1.631,-3.513 4.318,-5.45 7.587,-7.275 l 58.025,-32.512 c 4.729,-2.649 6.483,-8.816 3.882,-13.56 -2.603,-4.748 -8.761,-6.57 -13.531,-4.002 l -68.338,36.805 c -5.928,2.695 -13.71,3.068 -19.049,-1.165 -5.575,-4.419 -5.373,-12.092 -1.644,-17.629 2.392,-3.553 5.663,-5.611 9.328,-7.628 l 68.33,-37.534 c 4.739,-2.604 6.552,-8.735 4.01,-13.497 -2.541,-4.761 -8.649,-6.668 -13.447,-4.179 l -84.39,43.768 c -7.004,3.203 -15.485,0.078 -18.832,-6.819 a 14.42,14.42 0 0 1 -0.192,-12.143 c 1.63,-3.647 4.376,-5.595 7.727,-7.494 l 161.844,-91.974 46.081,27.012 c 12.3,7.22 28.276,6.042 39.346,-2.955 10.36,-8.42 16.064,-22.444 12.56,-35.578 -1.881,-7.048 -6.375,-13.552 -12.171,-17.974 l -8.003,-6.082 h 34.315 l 37.755,77.878 a 33.815,33.815 0 0 0 -15.14,-4.298 c -9.065,-0.392 -17.747,2.767 -24.439,8.901 -4.572,4.191 -7.839,9.427 -9.577,15.216 a 33.977,33.977 0 0 0 -11.708,-2.617 c -9.072,-0.395 -17.747,2.767 -24.439,8.901 -6.692,6.134 -10.593,14.506 -10.987,23.575 a 33.785,33.785 0 0 0 3.603,16.78 33.845,33.845 0 0 0 -13.201,7.514 c -6.691,6.134 -10.593,14.506 -10.987,23.575 -0.35,8.041 2.102,15.773 6.937,22.087 a 33.782,33.782 0 0 0 -12.776,7.361 c -9.702,8.894 -13.041,22.165 -9.788,34.064 z m 116.949,-15.586 c -5.667,5.195 -14.505,4.811 -19.701,-0.856 l -11.923,-13.006 c -5.196,-5.667 -4.811,-14.505 0.856,-19.701 a 13.889,13.889 0 0 1 9.417,-3.659 c 3.775,0 7.538,1.52 10.284,4.515 l 11.923,13.007 c 5.196,5.667 4.811,14.505 -0.856,19.7 z m 35.555,-32.593 c -5.668,5.196 -14.506,4.811 -19.701,-0.856 l -30.651,-33.436 c -4.328,-4.721 -4.845,-12.035 -1.217,-17.317 4.267,-6.212 12.988,-7.891 19.249,-3.682 0,0 34.18,37.215 34.863,37.849 1.397,2.322 2.086,5 1.966,7.769 a 13.857,13.857 0 0 1 -4.509,9.673 z m 35.029,-32.112 a 13.887,13.887 0 0 1 -10.028,3.653 13.835,13.835 0 0 1 -7.569,-2.633 c -0.572,-0.735 -47.199,-51.068 -47.199,-51.068 -5.13,-5.597 -4.755,-14.573 0.856,-19.701 5.613,-5.129 14.558,-4.755 19.701,0.856 l 45.095,49.193 a 13.857,13.857 0 0 1 3.653,10.028 13.848,13.848 0 0 1 -4.509,9.672 z m 35.555,-32.593 c -5.604,5.136 -14.566,4.745 -19.7,-0.856 l -34.926,-38.1 c -5.131,-5.597 -4.755,-14.573 0.856,-19.7 5.613,-5.129 14.558,-4.755 19.7,0.856 l 34.927,38.101 c 5.136,5.602 4.746,14.564 -0.857,19.699 z m 10.737,-44.613 -60.827,-125.469 46.68,-22.63 60.827,125.469 z"
       fill="#000000"
       data-original="#000000"
       data-darkreader-inline-fill=""
       class=""
       id="path3684"
       style="fill:#47305b;fill-opacity:1" /></g></svg>
