<?xml version="1.0" encoding="UTF-8" standalone="no"?>
<svg
   version="1.1"
   width="200"
   height="200"
   x="0"
   y="0"
   viewBox="0 0 218.75 218.75"
   xml:space="preserve"
   class=""
   id="svg15648"
   sodipodi:docname="contact.svg"
   inkscape:version="1.2 (dc2aedaf03, 2022-05-15)"
   xmlns:inkscape="http://www.inkscape.org/namespaces/inkscape"
   xmlns:sodipodi="http://sodipodi.sourceforge.net/DTD/sodipodi-0.dtd"
   xmlns="http://www.w3.org/2000/svg"
   xmlns:svg="http://www.w3.org/2000/svg"><defs
     id="defs15652" /><sodipodi:namedview
     id="namedview15650"
     pagecolor="#ffffff"
     bordercolor="#000000"
     borderopacity="0.25"
     inkscape:showpageshadow="2"
     inkscape:pageopacity="0.0"
     inkscape:pagecheckerboard="0"
     inkscape:deskcolor="#d1d1d1"
     showgrid="false"
     inkscape:zoom="2.3809611"
     inkscape:cx="119.90956"
     inkscape:cy="121.37955"
     inkscape:window-width="1920"
     inkscape:window-height="1017"
     inkscape:window-x="1072"
     inkscape:window-y="687"
     inkscape:window-maximized="1"
     inkscape:current-layer="svg15648" /><g
     id="g15646"
     transform="matrix(0.41418981,0,0,0.41666667,14.534218,0)"
     style="stroke-width:2.40717;stroke:none;stroke-opacity:1"><path
       d="M 397.668,0 H 102.293 C 67.781,0.016 39.805,27.988 39.793,62.5 v 27 H 10.418 c -6.906,0 -12.5,5.598 -12.5,12.5 0,6.902 5.594,12.5 12.5,12.5 h 29.246 v 82 H 10.418 c -6.906,0 -12.5,5.594 -12.5,12.5 0,6.902 5.594,12.5 12.5,12.5 h 29.246 v 82 H 10.418 c -6.906,0 -12.5,5.598 -12.5,12.5 0,6.906 5.594,12.5 12.5,12.5 h 29.246 v 82 H 10.418 c -6.906,0 -12.5,5.598 -12.5,12.5 0,6.902 5.594,12.5 12.5,12.5 h 29.246 v 27 c 0.016,34.512 27.988,62.484 62.5,62.5 H 397.54 c 34.512,-0.016 62.492,-27.988 62.5,-62.5 V 62.5 C 460.09,28.012 432.156,0.023 397.668,0 Z m 37.5,462.5 c -0.063,20.684 -16.816,37.441 -37.5,37.5 H 102.293 c -20.684,-0.059 -37.441,-16.816 -37.5,-37.5 v -27 h 29.246 c 6.906,0 12.5,-5.598 12.5,-12.5 0,-6.902 -5.594,-12.5 -12.5,-12.5 H 64.793 v -82 h 29.246 c 6.906,0 12.5,-5.594 12.5,-12.5 0,-6.902 -5.594,-12.5 -12.5,-12.5 H 64.793 v -82 h 29.246 c 6.906,0 12.5,-5.598 12.5,-12.5 0,-6.906 -5.594,-12.5 -12.5,-12.5 H 64.793 v -82 h 29.246 c 6.906,0 12.5,-5.598 12.5,-12.5 0,-6.902 -5.594,-12.5 -12.5,-12.5 H 64.793 v -27 C 64.852,41.816 81.609,25.059 102.293,25 h 295.375 c 20.684,0.059 37.437,16.816 37.5,37.5 z m 0,0"
       fill="#000000"
       data-original="#000000"
       data-darkreader-inline-fill=""
       class=""
       id="path15642"
       style="stroke-width:3.74029;stroke:none;stroke-opacity:1;fill:#47305b;fill-opacity:1" /><path
       d="m 249.918,258.875 c 33.48,0 60.625,-27.14 60.625,-60.625 0,-33.485 -27.145,-60.625 -60.625,-60.625 -33.484,0 -60.625,27.14 -60.625,60.625 0.031,33.469 27.152,60.594 60.625,60.625 z m 0,-96.375 c 19.672,0 35.625,15.953 35.625,35.625 0,19.672 -15.953,35.625 -35.625,35.625 -19.676,0 -35.625,-15.953 -35.625,-35.625 0.035,-19.656 15.96,-35.59 35.625,-35.625 z m 0,116.5 c -52,0 -92.754,42.125 -92.754,96 0.02,6.895 5.606,12.48 12.5,12.5 h 160.504 c 6.894,-0.02 12.48,-5.605 12.5,-12.5 0,-53.875 -40.754,-96 -92.75,-96 z m -66.754,83.5 c 5.379,-34.125 32.254,-58.5 66.754,-58.5 34.496,0 61.5,24.375 66.75,58.5 z m 0,0"
       fill="#000000"
       data-original="#000000"
       data-darkreader-inline-fill=""
       class=""
       id="path15644"
       style="stroke-width:3.74029;stroke:none;stroke-opacity:1;fill:#47305b;fill-opacity:1" /></g></svg>
