<?xml version="1.0" encoding="UTF-8" standalone="no"?>
<svg
   version="1.1"
   width="200"
   height="200"
   x="0"
   y="0"
   viewBox="0 0 200 200"
   xml:space="preserve"
   class=""
   id="svg10524"
   sodipodi:docname="work.svg"
   inkscape:version="1.2 (dc2aedaf03, 2022-05-15)"
   xmlns:inkscape="http://www.inkscape.org/namespaces/inkscape"
   xmlns:sodipodi="http://sodipodi.sourceforge.net/DTD/sodipodi-0.dtd"
   xmlns="http://www.w3.org/2000/svg"
   xmlns:svg="http://www.w3.org/2000/svg"><defs
     id="defs10528" /><sodipodi:namedview
     id="namedview10526"
     pagecolor="#ffffff"
     bordercolor="#000000"
     borderopacity="0.25"
     inkscape:showpageshadow="2"
     inkscape:pageopacity="0.0"
     inkscape:pagecheckerboard="0"
     inkscape:deskcolor="#d1d1d1"
     showgrid="false"
     inkscape:zoom="3.3671875"
     inkscape:cx="103.79582"
     inkscape:cy="98.00464"
     inkscape:window-width="1920"
     inkscape:window-height="1017"
     inkscape:window-x="1072"
     inkscape:window-y="687"
     inkscape:window-maximized="1"
     inkscape:current-layer="svg10524" /><g
     id="g10522"
     transform="matrix(0.39062576,0,0,0.3891414,0,0.37980196)"><path
       d="M 473.294,109.847 H 348.407 V 73.701 c 0,-7.392 -3.509,-14.481 -9.388,-18.965 -1.453,-1.108 -9.408,-6.919 -23.337,-12.517 -5.891,-2.367 -12.129,-4.394 -18.545,-6.023 a 7.515,7.515 0 1 0 -3.7,14.566 c 5.77,1.466 11.369,3.284 16.641,5.402 12.601,5.064 19.54,10.303 19.829,10.523 a 8.87,8.87 0 0 1 3.472,7.013 v 36.147 H 315.742 V 82.951 a 7.515,7.515 0 0 0 -4.099,-6.694 c -9.109,-4.647 -28.448,-12.444 -55.645,-12.444 -27.197,0 -46.536,7.796 -55.645,12.444 a 7.514,7.514 0 0 0 -4.099,6.694 v 26.897 H 178.616 V 73.701 a 8.866,8.866 0 0 1 3.473,-7.013 c 0.289,-0.221 7.224,-5.458 19.828,-10.524 16.262,-6.535 34.963,-9.989 54.081,-9.989 3.193,0 6.429,0.098 9.618,0.293 a 7.516,7.516 0 0 0 0.914,-15.002 c -3.492,-0.212 -7.036,-0.32 -10.532,-0.32 -21.02,0 -41.659,3.829 -59.686,11.073 -13.933,5.6 -21.885,11.41 -23.338,12.518 -5.878,4.482 -9.387,11.571 -9.387,18.963 v 36.147 H 38.706 C 17.363,109.847 0,127.21 0,148.552 v 105.175 c 0,11.07 4.667,21.461 12.858,28.803 v 159.618 c 0,21.342 17.363,38.705 38.705,38.705 h 296.912 a 7.515,7.515 0 1 0 0,-15.03 H 51.564 c -13.055,0 -23.676,-10.621 -23.676,-23.676 V 293.704 c 10.891,7.209 25.716,15.47 45.143,23.274 a 7.515,7.515 0 0 0 5.603,-13.946 C 51.111,291.977 33.604,280.107 23.764,272.095 A 23.59,23.59 0 0 1 15.03,253.728 V 148.552 c 0,-13.055 10.621,-23.676 23.676,-23.676 h 434.589 c 13.055,0 23.676,10.621 23.676,23.676 v 105.175 a 23.59,23.59 0 0 1 -8.734,18.367 c -11.237,9.148 -31.444,22.541 -63.9,34.397 -37.31,13.628 -81.561,21.868 -131.609,24.541 v -17.159 c 0,-9.877 -8.035,-17.912 -17.911,-17.912 h -37.64 c -9.877,0 -17.912,8.035 -17.912,17.912 v 17.17 c -40.462,-2.165 -77.326,-8.009 -109.677,-17.396 a 7.5146474,7.5146474 0 1 0 -4.188,14.434 c 33.665,9.768 71.943,15.815 113.865,18.007 v 3.534 c 0,20.254 16.478,36.731 36.732,36.731 20.253,0 36.731,-16.477 36.731,-36.731 v -3.531 c 101.618,-5.293 160.433,-31.776 191.384,-52.357 v 148.414 c 0,13.055 -10.621,23.676 -23.676,23.676 h -81.902 a 7.515,7.515 0 1 0 0,15.03 h 81.902 c 21.342,0 38.705,-17.363 38.705,-38.705 V 282.53 c 8.192,-7.342 12.858,-17.733 12.858,-28.802 V 148.552 C 512,127.21 494.637,109.847 473.294,109.847 Z M 211.283,87.701 c 8.961,-3.949 24.226,-8.859 44.714,-8.859 20.488,0 35.753,4.91 44.714,8.859 v 22.146 H 211.282 V 87.701 Z m 66.416,261.922 c 0,11.967 -9.735,21.702 -21.702,21.702 -11.967,0 -21.703,-9.735 -21.703,-21.702 v -35.75 a 2.887,2.887 0 0 1 2.883,-2.883 h 37.64 a 2.886,2.886 0 0 1 2.882,2.883 z"
       fill="#000000"
       data-original="#000000"
       data-darkreader-inline-fill=""
       class=""
       id="path10520"
       style="fill:#47305b;fill-opacity:1" /></g></svg>
