<?xml version="1.0" encoding="UTF-8" standalone="no"?>
<svg
   version="1.1"
   width="200"
   height="200"
   x="0"
   y="0"
   viewBox="0 0 25 25"
   xml:space="preserve"
   class=""
   id="svg27"
   sodipodi:docname="home.svg"
   inkscape:version="1.2 (dc2aedaf03, 2022-05-15)"
   xmlns:inkscape="http://www.inkscape.org/namespaces/inkscape"
   xmlns:sodipodi="http://sodipodi.sourceforge.net/DTD/sodipodi-0.dtd"
   xmlns="http://www.w3.org/2000/svg"
   xmlns:svg="http://www.w3.org/2000/svg"><defs
     id="defs31" /><sodipodi:namedview
     id="namedview29"
     pagecolor="#ffffff"
     bordercolor="#000000"
     borderopacity="0.25"
     inkscape:showpageshadow="2"
     inkscape:pageopacity="0.0"
     inkscape:pagecheckerboard="0"
     inkscape:deskcolor="#d1d1d1"
     showgrid="false"
     inkscape:zoom="3.1796875"
     inkscape:cx="39.469287"
     inkscape:cy="100.63882"
     inkscape:window-width="1920"
     inkscape:window-height="1017"
     inkscape:window-x="1072"
     inkscape:window-y="687"
     inkscape:window-maximized="1"
     inkscape:current-layer="svg27" /><g
     id="g25"
     transform="matrix(0.39058585,0,0,0.39191249,9.7584616e-4,-0.08239939)"><path
       d="M 63.28,24.46 53,15.9 V 9 a 2,2 0 0 0 -4,0 v 3.56 L 35.84,1.6 a 6,6 0 0 0 -7.68,0 L 0.72,24.46 a 2.0024984,2.0024984 0 0 0 2.56,3.08 L 30.72,4.67 a 2,2 0 0 1 2.56,0 L 56,23.6 V 58 a 2,2 0 0 1 -2,2 H 44 V 38 A 6,6 0 0 0 38,32 H 26 a 6,6 0 0 0 -6,6 V 60 H 10 A 2,2 0 0 1 8,58 V 34 a 2,2 0 0 0 -4,0 v 24 a 6,6 0 0 0 6,6 h 44 a 6,6 0 0 0 6,-6 V 26.94 l 0.72,0.6 A 2,2 0 0 0 62,28 2,2 0 0 0 63.28,24.46 Z M 24,60 V 38 a 2,2 0 0 1 2,-2 h 12 a 2,2 0 0 1 2,2 v 22 z"
       fill="#000000"
       data-original="#000000"
       data-darkreader-inline-fill=""
       class=""
       id="path21"
       style="fill:#47305b;fill-opacity:1" /><circle
       cx="30"
       cy="48"
       r="2"
       fill="#000000"
       data-original="#000000"
       data-darkreader-inline-fill=""
       class=""
       id="circle23"
       style="fill:#47305b;fill-opacity:1" /></g></svg>
