<?xml version="1.0" encoding="UTF-8" standalone="no"?>
<svg
   version="1.1"
   width="200"
   height="200"
   x="0"
   y="0"
   viewBox="0 0 200 200"
   xml:space="preserve"
   class=""
   id="svg6386"
   sodipodi:docname="skills.svg"
   inkscape:version="1.2 (dc2aedaf03, 2022-05-15)"
   xmlns:inkscape="http://www.inkscape.org/namespaces/inkscape"
   xmlns:sodipodi="http://sodipodi.sourceforge.net/DTD/sodipodi-0.dtd"
   xmlns="http://www.w3.org/2000/svg"
   xmlns:svg="http://www.w3.org/2000/svg"><defs
     id="defs6390" /><sodipodi:namedview
     id="namedview6388"
     pagecolor="#ffffff"
     bordercolor="#000000"
     borderopacity="0.25"
     inkscape:showpageshadow="2"
     inkscape:pageopacity="0.0"
     inkscape:pagecheckerboard="0"
     inkscape:deskcolor="#d1d1d1"
     showgrid="false"
     inkscape:zoom="3.3671875"
     inkscape:cx="99.341067"
     inkscape:cy="94.440835"
     inkscape:window-width="1920"
     inkscape:window-height="1017"
     inkscape:window-x="1072"
     inkscape:window-y="687"
     inkscape:window-maximized="1"
     inkscape:current-layer="svg6386" /><g
     id="g6384"
     transform="matrix(0.390625,0,0,0.3887929,0,-0.19414742)"><path
       d="M 186,444 H 326 M 184,414 H 328 M 176,384 h 160 m -35,90 v 10 c 0,11.046 -8.954,20 -20,20 h -50 c -11.046,0 -20,-8.954 -20,-20 v -10"
       style="stroke-width:15px;stroke-miterlimit:10;stroke:#47305b;stroke-opacity:1"
       fill="none"
       stroke="#000000"
       stroke-width="15"
       stroke-miterlimit="10"
       data-original="#000000"
       data-darkreader-inline-stroke=""
       class=""
       id="path6376" /><path
       d="M 66,198 C 66,93.066 151.066,8 256,8 360.934,8 446,93.066 446,198 446,263.928 412.42,322.011 361.431,356.084 339.262,370.898 326,395.845 326,422.51 V 454 c 0,11.046 -8.954,20 -20,20 H 206 c -11.046,0 -20,-8.954 -20,-20 V 422.51 C 186,395.846 172.738,370.899 150.569,356.084 99.58,322.011 66,263.928 66,198 Z"
       style="stroke-width:15px;stroke-miterlimit:10;stroke-dasharray:316px, 15px;stroke:#47305b;stroke-opacity:1"
       fill="none"
       stroke="#000000"
       stroke-width="15"
       stroke-miterlimit="10"
       stroke-dasharray="316,15"
       data-original="#000000"
       data-darkreader-inline-stroke=""
       class=""
       id="path6378" /><path
       d="m 0,201 h 38 m 436,0 h 38 M 15.439,288.557 51.147,275.56 M 460.853,126.44 496.561,113.443 M 59.893,365.554 89.002,341.128 M 422.998,60.872 452.107,36.446 M 496.561,288.557 460.853,275.56 M 51.147,126.44 15.439,113.443 M 452.107,365.554 422.998,341.128 M 89.002,60.872 59.893,36.446 M 357.794,201.753 C 368.697,195.115 376,183.174 376,169.5 c 0,-19.079 -14.185,-34.813 -32.6,-37.389 0.598,-2.15 1.021,-4.371 1.021,-6.711 0,-13.918 -11.311,-25.2 -25.263,-25.2 -0.728,0 -1.412,0.153 -2.124,0.213 C 311.888,85.63 297.836,75 281.263,75 271.544,75 262.708,78.681 256,84.682 249.292,78.682 240.456,75 230.737,75 c -16.573,0 -30.624,10.63 -35.771,25.413 -0.712,-0.06 -1.396,-0.213 -2.124,-0.213 -13.953,0 -25.263,11.282 -25.263,25.2 0,2.34 0.423,4.561 1.021,6.711 -18.415,2.575 -32.6,18.309 -32.6,37.389 0,13.674 7.303,25.615 18.206,32.253 -7.194,5.774 -11.89,14.52 -11.89,24.447 0,12.22 7.05,22.696 17.246,27.919 -2.867,4.743 -4.615,10.239 -4.615,16.181 0,16.677 13.034,30.188 29.473,31.288 7.057,15 22.291,25.412 40.001,25.412 12.378,0 23.554,-5.088 31.579,-13.265 8.025,8.177 19.201,13.265 31.579,13.265 17.71,0 32.944,-10.412 40.001,-25.412 16.439,-1.1 29.473,-14.611 29.473,-31.288 0,-5.942 -1.747,-11.438 -4.615,-16.181 10.196,-5.223 17.246,-15.699 17.246,-27.919 0,-9.927 -4.696,-18.674 -11.89,-24.447 z M 256,84.682 v 229.053"
       style="stroke-width:15px;stroke-miterlimit:10;stroke:#47305b;stroke-opacity:1"
       fill="none"
       stroke="#000000"
       stroke-width="15"
       stroke-miterlimit="10"
       data-original="#000000"
       data-darkreader-inline-stroke=""
       class=""
       id="path6380" /><path
       d="m 168.6,132.111 c 0,0 19.9,-3.111 31.9,17.889 m 142.9,-17.889 c 0,0 -19.9,-3.111 -31.9,17.889 M 184.42,301.588 c 0,0 28.08,1.412 25.08,-30.088 m -55.294,-69.747 c 0,0 25.294,-17.253 43.294,17.247 m 130.08,82.588 c 0,0 -28.08,1.412 -25.08,-30.088 m 55.294,-69.747 c 0,0 -25.294,-17.253 -43.294,17.247 m 101.5,5 v -15 m 0,-16 v -15"
       style="stroke-width:15px;stroke-miterlimit:10;fill:#47305b;fill-opacity:1;stroke:none"
       fill="none"
       stroke="#000000"
       stroke-width="15"
       stroke-miterlimit="10"
       data-original="#000000"
       data-darkreader-inline-stroke=""
       class=""
       id="path6382" /></g></svg>
